<svg width="96" height="96" xmlns="http://www.w3.org/2000/svg" xmlns:xlink="http://www.w3.org/1999/xlink" xml:space="preserve" overflow="hidden"><defs><clipPath id="clip0"><rect x="32" y="49" width="96" height="96"/></clipPath></defs><g clip-path="url(#clip0)" transform="translate(-32 -49)"><path d="M114.9 88.1C114.6 88.1 114.3 88.1 114 88.1L111.4 81.1C117.4 77.7 119.5 70.1 116.2 64.1 112.8 58.1 105.2 56 99.2 59.3 96.3 60.9 94.1 63.7 93.3 66.9L84 65.9C83.3 61.5 79.2 58.4 74.8 59.1 70.8 59.7 67.9 63.1 67.9 67.1 67.9 68.5 68.3 69.9 69 71.2L57.8 82.2C55.7 80.6 53.1 79.7 50.4 79.7 43.5 79.7 37.9 85.3 37.9 92.2 37.9 99.1 43.5 104.7 50.4 104.7L52.9 119.7C48.8 121.5 46.9 126.3 48.7 130.4 50.5 134.5 55.3 136.4 59.4 134.6 63.2 133 65.1 128.8 64 124.8L72.8 120.2C78.5 126.5 88.3 127 94.7 121.3 97.9 118.4 99.8 114.2 99.8 109.9 99.8 108.8 99.7 107.6 99.4 106.5L109.1 101.5C112.1 104.9 117.2 105.2 120.6 102.2 124 99.2 124.3 94.1 121.3 90.7 119.4 89.1 117.2 88.1 114.9 88.1L114.9 88.1ZM114.9 91.1C116.2 91.1 117.2 92.1 117.2 93.4 117.2 94.7 116.2 95.7 114.9 95.7 113.6 95.7 112.6 94.7 112.6 93.4 112.6 93.4 112.6 93.4 112.6 93.4 112.6 92.1 113.6 91.1 114.9 91.1L114.9 91.1ZM105.3 62.6C107.2 62.6 108.8 64.2 108.8 66.1 108.8 68 107.2 69.6 105.3 69.6 103.4 69.6 101.8 68 101.8 66.1 101.8 66.1 101.8 66.1 101.8 66.1 101.8 64.2 103.3 62.6 105.3 62.6ZM98.2 74C98.2 73.5 98.5 72.9 98.9 72.6 99.9 71.9 101.1 71.3 102.3 71 103.2 70.7 104.2 70.6 105.2 70.6 106.2 70.6 107.2 70.8 108.1 71 109.3 71.3 110.5 71.9 111.5 72.7 111.9 73 112.2 73.6 112.2 74.1L112.2 76.8 98.2 76.8 98.2 74ZM75.9 62C77.2 62 78.2 63 78.2 64.3 78.2 65.6 77.2 66.6 75.9 66.6 74.6 66.6 73.6 65.6 73.6 64.3 73.6 64.3 73.6 64.3 73.6 64.3 73.6 63.1 74.6 62 75.9 62L75.9 62ZM71.2 69.5C71.2 69.1 71.4 68.8 71.7 68.6 72.4 68.1 73.2 67.8 74 67.6 74.6 67.4 75.3 67.3 75.9 67.3 76.5 67.3 77.2 67.4 77.8 67.6 78.6 67.8 79.3 68.2 80 68.7 80.3 68.9 80.5 69.3 80.5 69.6L80.5 71.4 71.3 71.4 71.3 69.5ZM50.2 84.6C52.1 84.6 53.7 86.2 53.7 88.1 53.7 90 52.1 91.6 50.2 91.6 48.3 91.6 46.7 90 46.7 88.1 46.7 88.1 46.7 88.1 46.7 88.1 46.8 86.2 48.3 84.6 50.2 84.6L50.2 84.6ZM43.2 98.7 43.2 96C43.2 95.5 43.5 94.9 43.9 94.6 44.9 93.9 46.1 93.3 47.3 93 48.2 92.7 49.2 92.6 50.2 92.6 51.2 92.6 52.2 92.8 53.1 93 54.3 93.3 55.5 93.9 56.5 94.7 56.9 95 57.2 95.6 57.2 96.1L57.2 98.8 43.2 98.7ZM60.5 131.3 51.2 131.3 51.2 129.5C51.2 129.1 51.4 128.8 51.7 128.6 52.4 128.1 53.2 127.7 54 127.5 54.6 127.3 55.3 127.2 55.9 127.2 56.5 127.2 57.2 127.3 57.8 127.5 58.6 127.7 59.3 128.1 60 128.6 60.3 128.8 60.5 129.2 60.5 129.5L60.5 131.3ZM53.5 124.3C53.5 123 54.5 122 55.8 122 57.1 122 58.1 123 58.1 124.3 58.1 125.6 57.1 126.6 55.8 126.6 54.6 126.7 53.6 125.6 53.5 124.3L53.5 124.3ZM61.5 121.5C60.2 120.2 58.4 119.4 56.6 119.2L54.1 104.2C56.5 103.4 58.6 101.9 60.1 99.9L69.4 104.8C67.9 108.8 68.2 113.3 70.2 117.1L61.5 121.5ZM71.3 101.1 62.1 96.3C62.5 95 62.7 93.7 62.7 92.3 62.7 89.7 61.9 87.2 60.4 85.1L71.6 74.2C75.4 76.5 80.4 75.4 82.7 71.6 83 71.1 83.2 70.6 83.4 70.1L92.7 71.1C92.9 74.7 94.7 78.1 97.6 80.3L89.4 95.6C82.9 93 75.4 95.3 71.3 101.1L71.3 101.1ZM88.3 104.8C88.3 107.2 86.3 109.1 83.9 109.1 81.5 109.1 79.6 107.2 79.6 104.8 79.6 102.4 81.5 100.5 83.9 100.5 83.9 100.5 83.9 100.5 84 100.5 86.4 100.5 88.3 102.4 88.3 104.8L88.3 104.8ZM92.6 117.9 75.3 117.9 75.3 114.6C75.3 113.9 75.6 113.3 76.2 112.9 77.5 112 78.9 111.3 80.4 110.8 81.6 110.5 82.8 110.3 84 110.3 85.2 110.3 86.4 110.5 87.6 110.8 89.1 111.2 90.6 111.9 91.8 112.9 92.3 113.3 92.7 114 92.7 114.6L92.6 117.9ZM106.8 96.3C106.8 96.9 106.9 97.5 107.1 98.1L97.9 102.9C96.8 100.7 95.1 98.9 93.1 97.5L101.3 82.2C102.6 82.7 104 82.9 105.4 82.9 106.2 82.9 107 82.8 107.8 82.7L110.4 89.7C108 91.1 106.7 93.6 106.8 96.3ZM119.5 100.3 110.2 100.3 110.2 98.5C110.2 98.1 110.4 97.8 110.7 97.6 111.4 97.1 112.2 96.7 113 96.5 113.6 96.3 114.3 96.2 114.9 96.2 115.5 96.2 116.2 96.3 116.8 96.5 117.6 96.7 118.3 97.1 119 97.6 119.3 97.8 119.5 98.2 119.5 98.5L119.5 100.3Z" fill="#B13B8C"/></g></svg>