<svg width="403" height="403" xmlns="http://www.w3.org/2000/svg" xmlns:xlink="http://www.w3.org/1999/xlink" xml:space="preserve" overflow="hidden"><defs><clipPath id="clip0"><rect x="720" y="198" width="403" height="403"/></clipPath></defs><g clip-path="url(#clip0)" transform="translate(-720 -198)"><path d="M1068.43 302.948C1068.43 314.54 1059.03 323.938 1047.44 323.938 1035.85 323.938 1026.45 314.54 1026.45 302.948 1026.45 291.356 1035.85 281.958 1047.44 281.958 1059.03 281.958 1068.43 291.356 1068.43 302.948Z" stroke="#C34D6C" stroke-width="4.19792" fill="#C34D6C"/><path d="M816.552 302.948C816.552 314.54 807.155 323.938 795.562 323.938 783.97 323.938 774.573 314.54 774.573 302.948 774.573 291.356 783.97 281.958 795.562 281.958 807.155 281.958 816.552 291.356 816.552 302.948Z" stroke="#C34D6C" stroke-width="4.19792" fill="#C34D6C"/><path d="M984.469 302.948C984.469 314.54 975.071 323.938 963.479 323.938 951.887 323.938 942.49 314.54 942.49 302.948 942.49 291.356 951.887 281.958 963.479 281.958 975.071 281.958 984.469 291.356 984.469 302.948Z" stroke="#C34D6C" stroke-width="4.19792" fill="#C34D6C"/><path d="M900.51 302.948C900.51 314.54 891.113 323.938 879.521 323.938 867.929 323.938 858.531 314.54 858.531 302.948 858.531 291.356 867.929 281.958 879.521 281.958 891.113 281.958 900.51 291.356 900.51 302.948Z" stroke="#C34D6C" stroke-width="4.19792" fill="#C34D6C"/><path d="M1097.39 405.797 1083.96 344.507C1083.54 342.828 1082.7 341.149 1081.02 339.89 1075.98 336.111 1070.53 332.753 1064.23 331.074 1058.77 329.395 1053.31 328.135 1047.44 328.135 1041.56 328.135 1035.68 328.975 1030.65 331.074 1024.35 333.173 1018.89 336.111 1013.85 339.89 1012.17 341.149 1011.34 342.828 1010.92 344.507L1005.46 369.275 1005.46 369.275 1000 344.507C999.581 342.828 998.742 341.149 997.062 339.89 992.025 336.111 986.568 332.753 980.271 331.074 974.814 329.395 969.356 328.135 963.479 328.135 957.602 328.135 951.725 328.975 946.688 331.074 940.391 333.173 934.933 336.111 929.896 339.89 928.217 341.149 927.377 342.828 926.957 344.507L921.5 368.855 921.5 369.275 916.043 344.507C915.623 342.828 914.783 341.149 913.104 339.89 908.067 336.111 902.609 332.753 896.312 331.074 890.855 329.395 885.398 328.135 879.521 328.135 873.644 328.135 867.767 328.975 862.729 331.074 856.432 333.173 850.975 336.111 845.938 339.89 844.258 341.149 843.419 342.828 842.999 344.507L837.542 368.855 837.542 368.855 832.084 344.507C831.665 342.828 830.825 341.149 829.146 339.89 824.108 336.111 818.651 332.753 812.354 331.074 806.897 329.395 801.44 328.135 795.562 328.135 789.685 328.135 783.808 328.975 778.771 331.074 772.474 333.173 767.017 336.111 761.979 339.89 760.3 341.149 759.46 342.828 759.041 344.507L745.607 405.377C744.348 409.995 747.286 415.032 752.324 415.872 752.744 415.872 753.164 415.872 753.583 415.872 757.361 415.872 760.72 413.353 761.979 409.155L774.573 353.323 774.573 383.128 761.979 445.677 774.573 445.677 774.573 517.042 791.365 517.042 791.365 445.677 799.76 445.677 799.76 517.042 816.552 517.042 816.552 445.677 829.146 445.677 816.552 383.128 816.552 353.323 829.146 409.575C829.985 413.353 833.344 416.292 837.122 416.292L837.122 416.292C840.9 416.292 844.258 413.773 845.098 409.575L858.531 353.323 858.531 420.49 858.531 517.042 875.323 517.042 875.323 420.49 883.719 420.49 883.719 517.042 900.51 517.042 900.51 420.49 900.51 353.323 913.104 409.575C913.944 413.353 917.302 416.292 921.5 416.292 921.5 416.292 921.5 416.292 921.5 416.292L921.5 416.292C925.278 416.292 928.636 413.773 929.476 409.575L942.49 353.323 942.49 383.548 929.896 445.677 942.49 445.677 942.49 517.042 959.281 517.042 959.281 445.677 967.677 445.677 967.677 517.042 984.469 517.042 984.469 445.677 997.062 445.677 984.469 382.708 984.469 353.323 997.062 409.575C997.902 413.353 1001.26 416.292 1005.46 416.292 1005.46 416.292 1005.46 416.292 1005.46 416.292L1005.46 416.292C1005.46 416.292 1005.46 416.292 1005.46 416.292 1009.24 416.292 1012.59 413.773 1013.85 409.575L1026.45 353.323 1026.45 420.49 1026.45 517.042 1043.24 517.042 1043.24 420.49 1051.64 420.49 1051.64 517.042 1068.43 517.042 1068.43 420.49 1068.43 353.323 1081.02 409.575C1081.86 413.353 1085.22 416.292 1089.42 416.292 1090.26 416.292 1091.52 416.292 1092.36 415.872 1096.13 414.193 1098.23 409.995 1097.39 405.797Z" stroke="#C34D6C" stroke-width="4.19792" fill="#C34D6C"/></g></svg>